PathFileType	4	(X/Y/Z)	c:/Users/goper/Files/vsCode/490R/osim_files/A06/A06_Slow_05.trc
DataRate	CameraRate	NumFrames	NumMarkers	Units                	OrigDataRate	OrigDataStartFrame	OrigNumFrames
120.00	120.00	6	36	mm	120.0	1283	1466
                Frame#	Time	LPSIS			LASIS			LTH1			LTH2			LTH3			LTH4			LLFE			LMFE			LSH1			LSH2			LSH3			LSH4			LLMAL			LMMAL			LCAL			LMTP5			LTOE			LMTP1			RPSIS			RASIS			RTH1			RTH2			RTH3			RTH4			RLFE			RMFE			RSH1			RSH2			RSH3			RSH4			RLMAL			RMMAL			RCAL			RMTP1			RTOE			RMTP5		
		X1	Y1	Z1	X2	Y2	Z2	X3	Y3	Z3	X4	Y4	Z4	X5	Y5	Z5	X6	Y6	Z6	X7	Y7	Z7	X8	Y8	Z8	X9	Y9	Z9	X10	Y10	Z10	X11	Y11	Z11	X12	Y12	Z12	X13	Y13	Z13	X14	Y14	Z14	X15	Y15	Z15	X16	Y16	Z16	X17	Y17	Z17	X18	Y18	Z18	X19	Y19	Z19	X20	Y20	Z20	X21	Y21	Z21	X22	Y22	Z22	X23	Y23	Z23	X24	Y24	Z24	X25	Y25	Z25	X26	Y26	Z26	X27	Y27	Z27	X28	Y28	Z28	X29	Y29	Z29	X30	Y30	Z30	X31	Y31	Z31	X32	Y32	Z32	X33	Y33	Z33	X34	Y34	Z34	X35	Y35	Z35	X36	Y36	Z36

1283	10.68333	0.00000	0.00000	0.00000	-4648.12891	936.08289	369.88837	-4512.60938	589.67609	399.01395	0.00000	0.00000	0.00000	-4574.25635	577.22577	386.53653	-4560.50977	534.23413	380.23557	-4520.54443	467.40533	374.47729	0.00000	0.00000	0.00000	-4446.33984	388.05164	391.93417	-4442.63184	341.44363	396.26187	-4505.78955	375.25272	381.46463	-4495.98828	334.89304	384.91940	0.00000	0.00000	0.00000	-4413.75879	107.07065	266.22626	-4322.73779	89.31541	300.49142	-4495.99463	45.57837	369.64059	0.00000	0.00000	0.00000	-4505.15234	24.12478	276.43594	0.00000	0.00000	0.00000	-4617.76416	987.58875	120.23575	-4617.43896	598.38135	75.26132	-4639.55225	561.26752	74.21934	-4673.44775	621.22180	87.65813	-4685.79980	578.03149	83.65034	0.00000	0.00000	0.00000	-4694.10645	456.46466	189.91965	0.00000	0.00000	0.00000	0.00000	0.00000	0.00000	-4773.00928	322.46219	126.57165	-4780.40723	275.74725	122.14331	0.00000	0.00000	0.00000	0.00000	0.00000	0.00000	0.00000	0.00000	0.00000	0.00000	0.00000	0.00000	0.00000	0.00000	0.00000	-4675.92432	248.55545	103.71658
1284	10.69167	0.00000	0.00000	0.00000	-4655.99170	935.33606	369.74615	-4517.68555	588.20581	401.22430	0.00000	0.00000	0.00000	-4579.26367	576.38025	386.74701	-4565.14746	533.52051	380.34973	-4524.20410	467.04242	374.91214	0.00000	0.00000	0.00000	-4449.09766	388.18695	392.08331	-4445.03760	341.71429	396.50180	-4508.46924	374.84467	381.77124	-4498.32715	334.58929	385.24799	0.00000	0.00000	0.00000	-4414.17773	107.46458	266.47675	-4323.01367	89.80101	300.76123	-4496.06982	45.36237	369.74463	0.00000	0.00000	0.00000	-4505.29102	24.02814	276.56595	0.00000	0.00000	0.00000	-4624.63184	985.61243	119.98374	0.00000	0.00000	0.00000	0.00000	0.00000	0.00000	-4683.12207	620.72296	88.04552	-4695.94092	577.65839	84.07313	0.00000	0.00000	0.00000	-4705.86182	456.24860	190.50343	0.00000	0.00000	0.00000	-4745.26758	258.76721	119.61239	-4786.57715	323.69452	127.27592	-4794.63330	277.09833	122.96341	0.00000	0.00000	0.00000	0.00000	0.00000	0.00000	-4809.99023	551.47009	117.04009	0.00000	0.00000	0.00000	-4346.38037	40.00069	350.16177	0.00000	0.00000	0.00000
1285	10.70000	0.00000	0.00000	0.00000	-4663.96436	934.51794	369.47864	-4522.85400	587.73621	401.57245	0.00000	0.00000	0.00000	-4584.31592	575.48999	386.88058	-4572.04248	534.13690	383.19009	-4527.91016	466.55002	375.22571	0.00000	0.00000	0.00000	-4452.00000	388.44427	392.20297	-4447.50293	342.00443	396.72693	-4511.28076	374.46454	382.05267	-4500.71289	334.31097	385.53799	0.00000	0.00000	0.00000	-4414.74170	107.95541	266.79868	-4323.31152	90.41273	301.05176	-4497.48975	47.75301	371.84158	0.00000	0.00000	0.00000	-4505.37695	23.83556	276.69162	0.00000	0.00000	0.00000	-4631.55420	983.70929	119.60710	0.00000	0.00000	0.00000	0.00000	0.00000	0.00000	-4692.78857	620.09515	88.35136	-4706.01025	577.14996	84.42468	0.00000	0.00000	0.00000	-4717.55957	456.01947	191.08736	0.00000	0.00000	0.00000	-4759.49512	259.63766	120.30959	-4799.79102	324.78882	128.01514	-4808.43555	278.26416	123.79851	0.00000	0.00000	0.00000	-4619.45654	134.65297	320.36887	0.00000	0.00000	0.00000	0.00000	0.00000	0.00000	0.00000	0.00000	0.00000	-4820.72021	550.79443	117.64954
1286	10.70833	0.00000	0.00000	0.00000	-4671.92676	933.61035	369.13382	-4527.91797	588.12939	399.83527	0.00000	0.00000	0.00000	-4589.45605	574.60480	386.99393	-4576.87842	533.33942	383.29593	-4531.87695	466.15039	375.60318	-4522.44385	452.94440	265.23294	-4454.90576	388.56607	392.28760	-4449.99658	342.22369	396.85056	-4514.14844	374.10291	382.34061	-4503.13184	334.01468	385.82303	0.00000	0.00000	0.00000	-4415.29590	108.44949	267.10019	-4323.61914	91.07833	301.31912	-4497.59229	47.57934	371.95926	0.00000	0.00000	0.00000	-4505.55273	23.72658	276.84851	0.00000	0.00000	0.00000	-4638.52100	981.88483	119.10213	0.00000	0.00000	0.00000	0.00000	0.00000	0.00000	-4702.41699	619.37128	88.61170	-4715.98535	576.52759	84.75655	0.00000	0.00000	0.00000	-4729.09619	455.72388	191.69557	0.00000	0.00000	0.00000	-4773.36572	260.34048	121.06917	-4812.64795	325.61227	128.78819	-4821.87158	279.25171	124.65556	0.00000	0.00000	0.00000	0.00000	0.00000	0.00000	-4630.92236	140.73680	320.24387	0.00000	0.00000	0.00000	-4347.42529	41.01554	350.67581	0.00000	0.00000	0.00000
1287	10.71667	0.00000	0.00000	0.00000	-4679.90674	932.52063	368.68277	-4533.24365	587.66437	400.02225	0.00000	0.00000	0.00000	-4594.63867	573.66315	387.08194	-4581.72949	532.52991	383.35452	-4535.84424	465.64099	375.85022	-4531.67188	454.63431	265.29752	-4457.94971	388.79797	392.35379	-4452.61816	342.49969	396.95056	-4517.07764	373.67892	382.57248	-4505.68066	333.71774	386.08060	-4390.24023	97.89244	349.59753	-4415.91748	108.98376	267.30466	-4324.06152	91.93492	301.55698	-4497.74414	47.42847	372.07114	0.00000	0.00000	0.00000	-4505.74854	23.54537	277.00159	0.00000	0.00000	0.00000	-4645.65039	980.13660	118.47078	0.00000	0.00000	0.00000	0.00000	0.00000	0.00000	-4711.92139	618.49243	88.85960	-4725.84033	575.75110	85.09204	0.00000	0.00000	0.00000	0.00000	0.00000	0.00000	0.00000	0.00000	0.00000	-4786.81689	260.82422	121.87133	-4825.16260	326.32059	129.63075	-4834.88037	280.07419	125.62859	0.00000	0.00000	0.00000	-4841.93555	549.29663	118.63895	0.00000	0.00000	0.00000	0.00000	0.00000	0.00000	0.00000	0.00000	0.00000	-4688.56641	398.78058	187.61377
1288	10.72500	0.00000	0.00000	0.00000	-4687.83984	931.30548	368.17896	-4538.69531	586.15784	402.16068	0.00000	0.00000	0.00000	-4599.92090	572.76520	387.15289	-4586.66943	531.74847	383.39276	-4539.97168	465.20145	376.09518	-4539.05859	458.45340	265.67117	-4461.17529	388.98767	392.39865	-4457.54932	346.14798	395.99374	-4520.19385	373.31036	382.76318	-4508.38184	333.46606	386.25903	0.00000	0.00000	0.00000	0.00000	0.00000	0.00000	-4324.59570	92.97204	301.73462	-4497.82080	47.18915	372.15485	0.00000	0.00000	0.00000	-4505.91309	23.28903	277.08755	0.00000	0.00000	0.00000	-4652.87158	978.37891	117.73110	0.00000	0.00000	0.00000	0.00000	0.00000	0.00000	-4721.33447	617.51868	89.09982	-4735.59424	574.87842	85.41122	0.00000	0.00000	0.00000	-4852.11230	548.29291	119.20853	0.00000	0.00000	0.00000	-4799.80469	261.14139	122.75488	-4837.26123	326.83160	130.52243	-4847.47461	280.67545	126.63679	0.00000	0.00000	0.00000	0.00000	0.00000	0.00000	-4699.60693	398.01413	188.29919	0.00000	0.00000	0.00000	-4348.56934	42.22824	351.08447	0.00000	0.00000	0.00000
